<?xml version="1.0" encoding="UTF-8"?>
<svg xmlns="http://www.w3.org/2000/svg" viewBox="0 0 1106 806">
  <defs>
    <style>
      .cls-1, .cls-2, .cls-3, .cls-4, .cls-5, .cls-6 {
        stroke: #231f20;
        stroke-miterlimit: 10;
      }

      .cls-1, .cls-6 {
        fill: none;
      }

      .cls-2, .cls-3, .cls-4, .cls-5 {
        fill: #fff;
      }

      .cls-2, .cls-6 {
        stroke-width: 3px;
      }

      .cls-3 {
        stroke-width: 4px;
      }

      .cls-5 {
        stroke-width: 6px;
      }
    </style>
  </defs>
  <g id="GROUND">
    <path class="cls-5" d="m1103,579.3h0c-80.96,26.13-167.48,29.85-250.39,10.77l-66.48-15.3c-44.84-10.32-90.84-14.69-136.81-12.99l-186.46,6.88-234.46,20.87-91.7,12.21c-16.32,2-32.03,7.39-46.15,15.81L3,669.8v133.2h1100v-223.7Z"/>
  </g>
  <g id="SKY">
    <polygon class="cls-5" points="3 3 3 669.8 119.11 605.28 205.21 593.93 488.95 567.7 733.94 565.52 793.67 575.53 966.31 630.27 1103 579.3 1103 3 3 3"/>
  </g>
  <g id="C3-3">
    <path class="cls-2" d="m487.07,205.76c25.51-40.7,33.75-52.74,36.81-73.29,1.1-7.35-4.07-12.99-7.22-15.78-3.34-2.96-8.2-6.92-15.25-3.9-17.77,7.6-45.84,36.55-72.31,70.71-1.35,1.74-2.79,3.41-4.31,4.98l-11.97,12.37-1.47,1.04c-10.47,7.42-22.12,12.7-34.36,15.59l-14.73,3.48,5,69.67,47.84-20.15,32.86-19.87c5.06-3.06,9.46-7.24,12.92-12.26l26.19-32.59Z"/>
  </g>
  <g id="C2-12">
    <ellipse class="cls-2" cx="951.29" cy="471.15" rx="40.8" ry="8.81" transform="translate(338.78 1338.2) rotate(-81.11)"/>
  </g>
  <g id="C3-2">
    <path class="cls-2" d="m203.34,342.05l-38.9-30.23c-.49-.38-.94-.84-1.31-1.35l-32-43.57c-.15-.21-.3-.43-.43-.65l-22.58-39.09c-.3-.52-.54-1.08-.7-1.66l-10.39-36.34c-.19-.68-.29-1.38-.29-2.09v-28.62c0-1.72.58-3.38,1.63-4.68l3.16-3.89c5.06-6.22,12.37-9.8,20.05-9.8h0c5.5,0,10.91,1.58,15.66,4.58l4.38,2.76c1.03.65,1.88,1.59,2.46,2.73l6.86,13.53c.31.61.53,1.27.67,1.95l3.16,16.26c.05.24.11.48.18.72l6.35,21.26c.09.3.2.6.33.88l7.11,16.04c.3.67.69,1.28,1.16,1.82l9.21,10.5c.37.42.78.79,1.23,1.1l23.58,16.32c.36.25.73.45,1.12.62l9.76,4.19c2.67,1.15,4.35,4.03,4.14,7.12l-5.12,74.36c-.38,5.54-6.26,8.49-10.44,5.23Z"/>
  </g>
  <g id="C3-1">
    <path class="cls-2" d="m376.88,572.79c0-210.63-10.32-404.32-40.25-485.2-10.7-28.92-33.1-32.55-45.58-32.55-13.23,0-31.85,1.27-43.05,33.53-28.9,83.31-42.79,278.1-42.79,484.21v90.96l12.62,26.26c4.04,8.4,10.73,14.97,18.86,18.54l30.11,13.18h51.66l6.93-2.33c16.62-5.6,30.68-17.72,39.36-33.97l5.36-10.03,6.75-31.65v-70.94Z"/>
  </g>
  <g id="C1-2">
    <path class="cls-3" d="m556.8,347.41c10.16,31.26,19.72,60.92,13.06,89.73-4.2,18.14-26.92,54.16-43.69,57.19-20.93,3.79-66.24-28-78.53-40.9-16.24-17.04-25.63-27.89-34.79-56.09-17.63-54.22-.88-108.26,37.4-120.71,38.28-12.44,88.93,16.55,106.56,70.78Z"/>
  </g>
  <g id="C1-4">
    <path class="cls-3" d="m769.82,325.71c-13.04,8.83-24.19,12.16-31.77,13.39-10.97,1.78-10-1.14-15.3-8.41-5.28-7.25-12.41-9.42-7.41-19.29,3.49-6.87,16.77-21.6,24.26-27.07,18.27-13.31,40.34-14.14,49.29-1.84,8.96,12.29-.36,30.55-19.08,43.22Z"/>
  </g>
  <g id="C1-3">
    <path id="C1-5" class="cls-3" d="m725.62,380.6c-10.82,29.32-24.95,47.61-35.76,58.36-15.64,15.56-17.45,9.73-34.41,4.13s-30.93-.83-34.27-22.54c-2.33-15.12,2.05-54.25,7.82-71.74,14.06-42.61,48.71-69.47,77.38-60.01,28.67,9.46,34.76,49.7,19.24,91.8Z"/>
    <ellipse class="cls-2" cx="641.4" cy="285.79" rx="8.44" ry="40.75" transform="translate(89.85 720.38) rotate(-62.25)"/>
  </g>
  <g id="C1-11">
    <ellipse class="cls-2" cx="718.58" cy="281.97" rx="28.88" ry="5.99" transform="translate(16.04 601.83) rotate(-45.9)"/>
  </g>
  <g id="C1-9">
    <ellipse class="cls-2" cx="694.04" cy="271.36" rx="5.99" ry="28.88" transform="translate(-39.43 139.64) rotate(-11.17)"/>
  </g>
  <g id="C1-10">
    <ellipse class="cls-2" cx="705.98" cy="271.34" rx="28.88" ry="5.99" transform="translate(277.33 894.46) rotate(-76.5)"/>
  </g>
  <g id="C1-8">
    <ellipse class="cls-2" cx="671.46" cy="266.43" rx="8.44" ry="40.75" transform="translate(-25.03 74.74) rotate(-6.25)"/>
  </g>
  <g id="C1-7">
    <ellipse class="cls-2" cx="651.93" cy="273.78" rx="8.44" ry="40.75" transform="translate(-26.29 473.75) rotate(-39.21)"/>
  </g>
  <g id="C1-1">
    <path class="cls-3" d="m733.94,581.13c0,10.18-6.06,123.53-56.7,171.92-10.46,10-19.07,6.25-63.46,6.25-43.14,0-49.4,4.42-59.83-5.05-52.12-47.34-59.51-165.37-58.82-178.86,3.66-71.74,42.22-147.85,118.65-147.85s120.16,61.98,120.16,153.6Z"/>
  </g>
  <g id="DOTS">
    <g>
      <g>
        <ellipse class="cls-4" cx="530.23" cy="333.3" rx="6.2" ry="11.96"/>
        <ellipse class="cls-4" cx="502.33" cy="357.44" rx="4.87" ry="12.18" transform="translate(-106.82 262.39) rotate(-26.57)"/>
        <ellipse class="cls-4" cx="502.33" cy="315.67" rx="6.2" ry="11.96" transform="translate(-85.38 234.58) rotate(-24.29)"/>
        <ellipse class="cls-4" cx="466.37" cy="303.06" rx="6.2" ry="11.96" transform="translate(-82.02 395.86) rotate(-42.62)"/>
        <ellipse class="cls-4" cx="463.8" cy="342.53" rx="7.09" ry="14.91" transform="translate(-63.89 110.18) rotate(-12.68)"/>
        <ellipse class="cls-4" cx="440.2" cy="379.9" rx="7.09" ry="14.91" transform="translate(-72.67 105.91) rotate(-12.68)"/>
        <g>
          <ellipse class="cls-4" cx="522.82" cy="412.02" rx="4.85" ry="9.35"/>
          <ellipse class="cls-4" cx="501.01" cy="430.88" rx="3.81" ry="9.52" transform="translate(-139.8 269.55) rotate(-26.57)"/>
          <ellipse class="cls-4" cx="501.01" cy="398.23" rx="4.85" ry="9.35" transform="translate(-119.46 241.35) rotate(-24.29)"/>
          <ellipse class="cls-4" cx="472.9" cy="388.38" rx="4.85" ry="9.35" transform="translate(-138.07 422.83) rotate(-42.62)"/>
          <ellipse class="cls-4" cx="470.9" cy="419.23" rx="5.54" ry="11.65" transform="translate(-80.55 113.61) rotate(-12.68)"/>
        </g>
        <ellipse class="cls-4" cx="541.63" cy="379.9" rx="7.09" ry="14.91" transform="translate(-70.19 128.18) rotate(-12.68)"/>
      </g>
      <g>
        <ellipse class="cls-4" cx="718.12" cy="361.79" rx="9.25" ry="4.8" transform="translate(10.95 744.54) rotate(-55.16)"/>
        <ellipse class="cls-4" cx="689.74" cy="364.79" rx="9.42" ry="3.77" transform="translate(229.52 994.87) rotate(-81.73)"/>
        <ellipse class="cls-4" cx="708.2" cy="338.27" rx="9.25" ry="4.8" transform="translate(246.02 972.59) rotate(-79.45)"/>
        <ellipse class="cls-4" cx="690.94" cy="314.38" rx="4.8" ry="9.25" transform="translate(-36.22 96.49) rotate(-7.79)"/>
        <ellipse class="cls-4" cx="671.87" cy="338.3" rx="11.53" ry="5.48" transform="translate(105.18 832.99) rotate(-67.85)"/>
        <ellipse class="cls-4" cx="640.37" cy="351.6" rx="11.53" ry="5.48" transform="translate(73.25 812.11) rotate(-67.85)"/>
        <g>
          <ellipse class="cls-4" cx="678.64" cy="408.49" rx="7.23" ry="3.75" transform="translate(-44.31 732.16) rotate(-55.16)"/>
          <ellipse class="cls-4" cx="656.46" cy="410.83" rx="7.36" ry="2.95" transform="translate(155.46 1001.35) rotate(-81.73)"/>
          <ellipse class="cls-4" cx="670.88" cy="390.1" rx="7.23" ry="3.75" transform="translate(164.57 978.25) rotate(-79.45)"/>
          <ellipse class="cls-4" cx="657.39" cy="371.43" rx="3.75" ry="7.23" transform="translate(-44.25 92.47) rotate(-7.79)"/>
          <ellipse class="cls-4" cx="642.49" cy="390.13" rx="9.01" ry="4.28" transform="translate(38.88 838.06) rotate(-67.85)"/>
        </g>
        <ellipse class="cls-4" cx="704.76" cy="396.41" rx="11.53" ry="5.48" transform="translate(71.85 899.65) rotate(-67.85)"/>
      </g>
      <ellipse class="cls-4" cx="695.1" cy="526.86" rx="11.96" ry="6.2" transform="translate(-104.88 874.38) rotate(-60.64)"/>
      <ellipse class="cls-4" cx="658.94" cy="534.21" rx="12.18" ry="4.87" transform="translate(93.25 1166.34) rotate(-87.21)"/>
      <ellipse class="cls-4" cx="679.42" cy="497.81" rx="11.96" ry="6.2" transform="translate(123.54 1130.59) rotate(-84.93)"/>
      <ellipse class="cls-4" cx="654.26" cy="469.19" rx="6.2" ry="11.96" transform="translate(-90.19 162.62) rotate(-13.26)"/>
      <ellipse class="cls-4" cx="632.67" cy="502.33" rx="14.91" ry="7.09" transform="translate(-30.09 964.24) rotate(-73.32)"/>
      <ellipse class="cls-4" cx="593.78" cy="523.33" rx="14.91" ry="7.09" transform="translate(-77.94 941.96) rotate(-73.32)"/>
      <g>
        <ellipse class="cls-4" cx="650.04" cy="591.83" rx="9.35" ry="4.85" transform="translate(-184.48 868.23) rotate(-60.64)"/>
        <ellipse class="cls-4" cx="621.79" cy="597.58" rx="9.52" ry="3.81" transform="translate(-5.39 1189.5) rotate(-87.21)"/>
        <ellipse class="cls-4" cx="637.79" cy="569.12" rx="9.35" ry="4.85" transform="translate(14.55 1154.14) rotate(-84.93)"/>
        <ellipse class="cls-4" cx="618.12" cy="546.76" rx="4.85" ry="9.35" transform="translate(-108.95 156.4) rotate(-13.26)"/>
        <ellipse class="cls-4" cx="601.25" cy="572.66" rx="11.65" ry="5.54" transform="translate(-119.86 984.29) rotate(-73.32)"/>
      </g>
      <ellipse class="cls-4" cx="682.18" cy="573.06" rx="14.91" ry="7.09" transform="translate(-62.54 1062.1) rotate(-73.32)"/>
      <ellipse class="cls-4" cx="609.54" cy="458.64" rx="11.96" ry="6.2" transform="translate(-148.15 546.94) rotate(-43.61)"/>
      <ellipse class="cls-4" cx="565.19" cy="559.23" rx="4.87" ry="12.18" transform="translate(-190.43 311.8) rotate(-26.57)"/>
      <ellipse class="cls-4" cx="530.23" cy="541.67" rx="11.96" ry="6.2" transform="translate(-213.78 686.56) rotate(-56.63)"/>
      <ellipse class="cls-4" cx="541.66" cy="494.19" rx="14.65" ry="8.61" transform="translate(-188.53 560.87) rotate(-47.59)"/>
      <ellipse class="cls-4" cx="605.58" cy="640.01" rx="7.09" ry="14.91" transform="translate(-125.74 148.57) rotate(-12.68)"/>
      <ellipse class="cls-4" cx="545.19" cy="585.38" rx="7.09" ry="14.91" transform="translate(-115.22 133.98) rotate(-12.68)"/>
      <g>
        <ellipse class="cls-4" cx="579.62" cy="486.92" rx="4.47" ry="9.35"/>
        <ellipse class="cls-4" cx="565.19" cy="523.33" rx="3.57" ry="9.38" transform="translate(-164.62 276.97) rotate(-24.14)"/>
        <ellipse class="cls-4" cx="678.64" cy="611.94" rx="4.53" ry="9.23" transform="translate(-177.14 291.51) rotate(-21.51)"/>
        <ellipse class="cls-4" cx="701.8" cy="597.58" rx="4.63" ry="9.03" transform="translate(-219.54 569.98) rotate(-38.7)"/>
        <ellipse class="cls-4" cx="579.62" cy="597.58" rx="6.84" ry="15.11" transform="translate(-105.46 124.59) rotate(-11.25)"/>
      </g>
      <ellipse class="cls-4" cx="712.72" cy="570.76" rx="7.09" ry="14.91" transform="translate(-107.92 170.4) rotate(-12.68)"/>
      <g>
        <ellipse class="cls-4" cx="584.22" cy="669.8" rx="9.35" ry="4.85" transform="translate(-285.99 850.6) rotate(-60.64)"/>
        <ellipse class="cls-4" cx="555.96" cy="675.55" rx="9.52" ry="3.81" transform="translate(-145.88 1197.93) rotate(-87.21)"/>
        <ellipse class="cls-4" cx="571.97" cy="647.1" rx="9.35" ry="4.85" transform="translate(-123.13 1159.66) rotate(-84.93)"/>
        <ellipse class="cls-4" cx="552.3" cy="624.73" rx="4.85" ry="9.35" transform="translate(-128.6 143.38) rotate(-13.26)"/>
        <ellipse class="cls-4" cx="535.42" cy="650.63" rx="11.65" ry="5.54" transform="translate(-241.49 976.83) rotate(-73.32)"/>
      </g>
      <g>
        <ellipse class="cls-4" cx="679.65" cy="720.74" rx="13.5" ry="7" transform="translate(-300.89 579.56) rotate(-38.49)"/>
        <ellipse class="cls-4" cx="638.72" cy="713.05" rx="13.75" ry="5.5" transform="translate(-277.2 991.41) rotate(-65.05)"/>
        <ellipse class="cls-4" cx="675.62" cy="683.7" rx="13.5" ry="7" transform="translate(-241.41 971.73) rotate(-62.78)"/>
        <ellipse class="cls-4" cx="661.5" cy="643.07" rx="13.5" ry="7" transform="translate(-76.08 1197.23) rotate(-81.11)"/>
        <ellipse class="cls-4" cx="624.82" cy="668.53" rx="16.83" ry="8" transform="translate(-287.74 736.09) rotate(-51.17)"/>
      </g>
      <g>
        <ellipse class="cls-4" cx="601.77" cy="687.18" rx="4.85" ry="9.35" transform="translate(-267.21 968.63) rotate(-66.74)"/>
        <ellipse class="cls-4" cx="610.49" cy="714.67" rx="9.52" ry="3.81" transform="translate(-40.16 36.36) rotate(-3.3)"/>
        <ellipse class="cls-4" cx="580.49" cy="701.77" rx="9.35" ry="4.85" transform="translate(-12.49 10.52) rotate(-1.03)"/>
        <ellipse class="cls-4" cx="560.34" cy="723.7" rx="9.35" ry="4.85" transform="translate(-208.22 226.67) rotate(-19.36)"/>
        <ellipse class="cls-4" cx="587.89" cy="737.73" rx="5.54" ry="11.65" transform="translate(-245.24 1180.17) rotate(-79.42)"/>
      </g>
      <ellipse class="cls-4" cx="699.13" cy="638.01" rx="11.96" ry="6.2" transform="translate(-247.14 658.22) rotate(-43.61)"/>
      <ellipse class="cls-4" cx="760.49" cy="290.88" rx="9.25" ry="4.8" transform="translate(87.32 748.91) rotate(-55.16)"/>
      <ellipse class="cls-4" cx="780.67" cy="295.64" rx="9.25" ry="4.8" transform="translate(347.14 1009.01) rotate(-79.45)"/>
      <ellipse class="cls-4" cx="761.71" cy="314.76" rx="11.53" ry="5.48" transform="translate(-62.41 304.73) rotate(-21.75)"/>
    </g>
  </g>
  <g id="C2-1">
    <path class="cls-2" d="m1060.46,642.4c0-96.22-65.93-167.34-141.99-167.34s-137.72,78-137.72,174.21v25.34l-4.8,24.94,2.78,20.8,4.17,13.12,25.01,1.27,59.06,7.09s52.11,3.54,59.75,3.54,52.81,1.39,52.81,1.39l36.82-4.17,29.18-7.85,15.29-13v-11.29l4.17-11.9v-23.94l-4.53-32.22Z"/>
    <polygon class="cls-2" points="815.7 536.25 807.78 595.18 805.62 630.89 801 678.25 796.5 734.16 782.9 733.47 776.37 702.64 780.75 674.61 783.19 636.19 786.21 600.57 793.67 575.53 815.7 536.25"/>
  </g>
  <g id="C2-3">
    <polyline class="cls-6" points="860.7 491.09 833.6 512.06 815.7 536.25 811.48 582.64 807.64 597.56 807.64 612.54 805.62 635.21 803.39 653.79 801 678.25 798.02 711.71 798.12 725.15 796.5 734.16 817.99 735.95 827.59 737.1 836.13 645.25 842.79 589.94 853.06 536.25 862.76 497.42 866.34 487.98"/>
  </g>
  <g id="C2-5">
    <ellipse class="cls-2" cx="966.31" cy="453.04" rx="59.1" ry="9.66" transform="translate(182.32 1177.16) rotate(-67.85)"/>
  </g>
  <g id="C2-6">
    <ellipse class="cls-2" cx="938.18" cy="453.04" rx="9.66" ry="59.1" transform="translate(-43.77 104.9) rotate(-6.25)"/>
  </g>
  <g id="C2-8">
    <ellipse class="cls-2" cx="920.48" cy="454.98" rx="9.66" ry="59.1" transform="translate(-102.72 369.27) rotate(-21.51)"/>
  </g>
  <g id="C2-9">
    <ellipse class="cls-2" cx="972.8" cy="468.74" rx="51.27" ry="10.41" transform="translate(-2.31 932.65) rotate(-51.17)"/>
  </g>
  <g id="C2-4">
    <path class="cls-6" d="m970.73,488.06s-.09,0-.08.05l.51,2.68,6.22,32.71,7.16,34.1,4.55,29.27,6.83,31.23s-.33,22.44,0,23.42,3.25,27.97,3.25,27.97v26.35l1.3,17.89,5.85,27.97,10.03.88,26.85-7.22,9.3-6.56-5.86-39.8-7.16-24.07-5.2-31.55-8.46-27.32s-6.83-26.35-6.83-27.65-7.44-34.15-7.44-34.15l-12.73-27.65-7.16-13.68-20.96-14.88Z"/>
  </g>
  <g id="C2-10">
    <ellipse class="cls-2" cx="968.99" cy="491.32" rx="33.22" ry="7.23" transform="translate(-104.66 657.53) rotate(-35.69)"/>
  </g>
  <g id="C2-11">
    <ellipse class="cls-2" cx="920.48" cy="491.14" rx="7.23" ry="33.22" transform="translate(-15.4 952.25) rotate(-54.31)"/>
  </g>
  <g id="C2">
    <line class="cls-1" x1="269.11" y1="93.39" x2="281.85" y2="111.71"/>
    <line class="cls-1" x1="330.27" y1="115.48" x2="315.83" y2="132.47"/>
    <line class="cls-1" x1="283.55" y1="140.08" x2="286.1" y2="150.31"/>
    <line class="cls-1" x1="255.52" y1="149.46" x2="263.16" y2="165.6"/>
    <line class="cls-1" x1="347.26" y1="179.19" x2="331.97" y2="192.78"/>
    <line class="cls-1" x1="301.39" y1="208.07" x2="301.39" y2="229.31"/>
    <line class="cls-1" x1="264.01" y1="229.31" x2="275.48" y2="256.49"/>
    <line class="cls-1" x1="345.56" y1="261.59" x2="323.05" y2="266.43"/>
    <line class="cls-1" x1="245.32" y1="306.69" x2="269.75" y2="327.85"/>
    <line class="cls-1" x1="323.05" y1="371.43" x2="343.86" y2="351.6"/>
    <line class="cls-1" x1="323.05" y1="329.55" x2="338.77" y2="315.11"/>
    <line class="cls-1" x1="291.04" y1="398.23" x2="275.48" y2="367.94"/>
    <line class="cls-1" x1="243.62" y1="421.36" x2="235.13" y2="408.49"/>
    <line class="cls-1" x1="330.91" y1="454.98" x2="343.01" y2="428.09"/>
    <line class="cls-1" x1="291.04" y1="448.97" x2="292.04" y2="440.83"/>
    <line class="cls-1" x1="333.46" y1="523.33" x2="355.76" y2="499.45"/>
    <line class="cls-1" x1="263.16" y1="511.39" x2="242.77" y2="483.44"/>
    <line class="cls-1" x1="257.53" y1="454.98" x2="264.86" y2="468.74"/>
    <line class="cls-1" x1="257.53" y1="581" x2="242.77" y2="559.23"/>
    <line class="cls-1" x1="349.81" y1="624.73" x2="359.16" y2="607.34"/>
    <line class="cls-1" x1="323.05" y1="597.58" x2="335.37" y2="571.66"/>
    <line class="cls-1" x1="284.82" y1="650.63" x2="276.75" y2="614.13"/>
    <line class="cls-1" x1="250.15" y1="647.1" x2="238.53" y2="630.27"/>
    <line class="cls-1" x1="129.79" y1="179.19" x2="138.29" y2="157.53"/>
    <line class="cls-1" x1="119.6" y1="191.93" x2="116.2" y2="185.98"/>
    <line class="cls-1" x1="141.68" y1="218.69" x2="142.53" y2="208.07"/>
    <line class="cls-1" x1="161.61" y1="204.74" x2="164.62" y2="200.43"/>
    <line class="cls-1" x1="105.47" y1="218.69" x2="84.77" y2="205.52"/>
    <line class="cls-1" x1="157.83" y1="290.88" x2="134.04" y2="281.97"/>
    <line class="cls-1" x1="172.27" y1="242.9" x2="179.06" y2="215.72"/>
    <line class="cls-1" x1="187.56" y1="273.78" x2="193.5" y2="256.49"/>
    <line class="cls-1" x1="180.76" y1="295.64" x2="170.57" y2="287.92"/>
    <line class="cls-1" x1="201.15" y1="295.64" x2="205.4" y2="280.28"/>
    <line class="cls-1" x1="344.61" y1="222.51" x2="368.5" y2="181.74"/>
    <line class="cls-1" x1="250.15" y1="182.59" x2="203.27" y2="140.08"/>
    <line class="cls-1" x1="405.83" y1="236.95" x2="405.83" y2="195.33"/>
    <line class="cls-1" x1="433.91" y1="213.38" x2="448.35" y2="208.07"/>
    <line class="cls-1" x1="451.75" y1="179.19" x2="451.75" y2="168.36"/>
    <line class="cls-1" x1="485.73" y1="168.36" x2="501.87" y2="154.55"/>
    <line class="cls-1" x1="501.01" y1="140.08" x2="496.77" y2="118.87"/>
    <line class="cls-1" x1="472.9" y1="168.36" x2="472.9" y2="149.46"/>
    <line class="cls-1" x1="470.9" y1="201.17" x2="498.89" y2="186.9"/>
    <line class="cls-1" x1="427.12" y1="250.12" x2="460.88" y2="238.35"/>
    <line class="cls-1" x1="397.38" y1="266.43" x2="397.38" y2="249.7"/>
    <line class="cls-1" x1="382.94" y1="241.74" x2="381.24" y2="223.36"/>
    <line class="cls-1" x1="517.98" y1="129.47" x2="535.42" y2="123.97"/>
    <line class="cls-1" x1="309.03" y1="78.95" x2="314.13" y2="69.6"/>
    <line class="cls-1" x1="284.82" y1="61.11" x2="280.79" y2="46.67"/>
    <line class="cls-1" x1="334.31" y1="687.18" x2="365.95" y2="650.63"/>
    <line class="cls-1" x1="311.58" y1="659.16" x2="311.58" y2="638.68"/>
    <line class="cls-1" x1="291.04" y1="561.43" x2="280.79" y2="546.76"/>
    <line class="cls-1" x1="301.39" y1="517.29" x2="323.48" y2="495.2"/>
    <line class="cls-1" x1="127.24" y1="244.24" x2="145.93" y2="249.7"/>
  </g>
</svg>