<svg width="818" height="555" viewBox="0 0 818 555" fill="none" xmlns="http://www.w3.org/2000/svg">
<rect width="818" height="555" fill="#F5F5F5"/>
<rect width="818" height="555" fill="white"/>
<rect x="132.5" y="58.5" width="538" height="386" fill="#FFFCFC" stroke="black" stroke-width="5"/>
<path d="M315.215 301.5L401 150.086L486.785 301.5H315.215Z" fill="white" stroke="black" stroke-width="6"/>
<path d="M282.5 129.339L309.673 199.815L310.414 201.736H312.473H398.821L329.43 244.22L327.298 245.526L328.198 247.858L354.985 317.333L284.066 273.913L282.5 272.954L280.934 273.913L210.015 317.333L236.802 247.858L237.702 245.526L235.57 244.22L166.179 201.736H252.527H254.586L255.327 199.815L282.5 129.339Z" fill="white" stroke="black" stroke-width="6"/>
<rect x="438" y="104" width="176" height="153" fill="white" stroke="black" stroke-width="6"/>
<path d="M597 343.5C597 383.803 560.592 417 515 417C469.408 417 433 383.803 433 343.5C433 303.197 469.408 270 515 270C560.592 270 597 303.197 597 343.5Z" fill="white" stroke="black" stroke-width="6"/>
</svg>
