<?xml version="1.0" encoding="UTF-8"?>
<svg xmlns="http://www.w3.org/2000/svg" viewBox="0 0 76.32 371.39">
  <defs>
    <style>
      .cls-1 {
        fill: none;
      }

      .cls-1, .cls-2, .cls-3, .cls-4 {
        stroke: #231f20;
        stroke-miterlimit: 10;
      }

      .cls-5 {
        stroke-width: 0px;
      }

      .cls-5, .cls-4 {
        fill: #b99b72;
      }

      .cls-2 {
        fill: #fff;
      }

      .cls-3 {
        fill: #bbbdbf;
      }
    </style>
  </defs>
  <g id="Tip">
    <path class="cls-2" d="m33.52,89.67c7.99,0,9.07.37,17.08-.5l1.79-5.39,2.55-8.62c1.88-5.74,2.76-9.75,3.35-13.81l1.18-8.02c.05-.35.09-.69.12-1.04l.99-12.2c.16-1.96-.04-3.94-.57-5.84l-.4-1.43c-1.25-4.42-3.5-8.5-6.57-11.92h0c-1.95-2.18-4.19-4.08-6.65-5.66l-3.1-1.98c-1.45-.93-2.98-1.73-4.57-2.39l-4.55-1.9c-1.28-.54-2.6-.97-3.95-1.3l-3.81-.94c-.37-.09-.68.28-.53.63l2.01,4.66c.49,1.14.91,2.31,1.25,3.5l.57,1.99c.19.66.29,1.35.29,2.04h0c0,1.67-.32,3.33-.95,4.88-.3.75-1.14,2-1.24,2.13-1.18,1.5-1.63,2.2-2.74,3.44-.43.48-.83.99-1.21,1.52l-.47.67c-1.31,1.86-2.28,3.93-2.86,6.13l-.88,3.31-.58,8.09s.49,9.36.49,9.75c0,.2,1.18,5.46,2.06,8.78,1.12,4.24,2.95,8.25,5.4,11.88l6.48,9.56Z"/>
  </g>
  <g id="Grey">
    <polygon class="cls-3" points="34.14 89.74 50.61 89.17 52.92 100.17 30.4 100.17 34.14 89.74"/>
  </g>
  <g id="Body">
    <g>
      <polygon class="cls-5" points="24.02 127.94 57.05 127.94 58.44 145.3 59.6 162.16 60.63 195.48 60.64 208.46 60.31 219.61 58.91 251.59 56.86 285.63 54.04 313.85 51.94 328.56 48.08 347.18 44.27 358.17 41.22 362.96 37.67 364.67 34.29 362.53 31.82 358.77 26.47 344.21 23.61 332.08 20.07 310.34 18.81 299.44 17.38 282.88 16.41 264.97 15.91 241.27 15.75 215.31 16.58 190.57 18.29 167.29 19.61 154.93 21.34 142.04 23.16 130.98 24.02 127.94"/>
      <polygon class="cls-3" points="54.13 110.71 27.81 110.06 26.88 113.6 25.42 120.48 55.67 120.48 54.13 110.71"/>
      <polygon class="cls-3" points="52.87 99.82 31.06 100.17 28.41 109.63 54.41 110.37 52.87 99.82"/>
      <path class="cls-1" d="m60.64,199.1c0,19.94-.78,30.06-1.58,49.31-3.03,72.54-11.24,115.48-20.91,116.26s-22.24-49.13-22.24-126.05c0,0-3.44-87.36,17.09-146.53,1.61-4.64,5.23-6.04,8.12-5.97,3.28.08,9.26,1.29,9.87,4.38,7.81,39.32,9.65,80.61,9.65,108.59Z"/>
      <path class="cls-2" d="m56.01,120.48h-30.59,30.59Z"/>
      <path class="cls-2" d="m57.05,127.94H24.02h33.03Z"/>
      <path class="cls-4" d="m60.62,39.34l-3.72,4.03c-.08.1-.17.2-.26.3-1.5,1.71-3.31,3.07-5.3,4.04s-4.25,1.55-6.5,1.64c-1.89.07-3.8-.19-5.66-.81-.61-.21-1.14-.43-1.56-.66h0c-1.38-.76-2.86-1.25-4.37-1.48-1.68-.26-3.4-.2-5.06.19s-3.16,1.04-4.56,2.01l-4.49,1.93.42,8.39.9,4.53,1.85,7.06,2.23,5.37,4,6.45,2.58,3.81,2.4,3.55,17.08-.5,2.74-8.61,3.09-10.34,1.7-7.84,1.13-7.65.61-4.79.54-5.2.19-5.39Z"/>
      <path class="cls-2" d="m54.56,110.71h-26.98,26.98Z"/>
      <polygon class="cls-3" points="55.67 120.48 25.42 120.48 24.02 127.94 56.45 128.28 55.67 120.48"/>
    </g>
  </g>
</svg>